# WaveFront *.obj file (generated by Autodesk ATF)

mtllib HexagonButton.mtl

g Solid1

v -86.602545 0.000000 -50.000000
v -86.602545 0.000000 50.000000
v -86.602545 50.000000 -50.000000
v -86.602545 50.000000 50.000000
v 0.000000 0.000000 -100.000000
v 0.000000 0.000000 100.000000
v 0.000000 50.000000 -100.000000
v 0.000000 50.000000 100.000000
v 86.602545 0.000000 -50.000000
v 86.602545 0.000000 50.000000
v 86.602545 50.000000 -50.000000
v 86.602545 50.000000 50.000000
vt 0.000000 0.000000 0.000000
vt 10.000000 0.000000 0.000000
vt 10.000000 5.000000 0.000000
vt 0.000000 5.000000 0.000000
vt 0.000000 0.000000 0.000000
vt 10.000000 0.000000 0.000000
vt 10.000000 5.000000 0.000000
vt 0.000000 5.000000 0.000000
vt 0.000000 0.000000 0.000000
vt 10.000000 0.000000 0.000000
vt 10.000000 5.000000 0.000000
vt 0.000000 5.000000 0.000000
vt 0.000000 0.000000 0.000000
vt 10.000000 0.000000 0.000000
vt 10.000000 5.000000 0.000000
vt 0.000000 5.000000 0.000000
vt 0.000000 0.000000 0.000000
vt 10.000000 0.000000 0.000000
vt 10.000000 5.000000 0.000000
vt 0.000000 5.000000 0.000000
vt 0.000000 0.000000 0.000000
vt 10.000000 0.000000 0.000000
vt 10.000000 5.000000 0.000000
vt 0.000000 5.000000 0.000000
vt 10.000000 0.000000 0.000000
vt 5.000000 8.660254 0.000000
vt -5.000000 8.660254 0.000000
vt -10.000000 0.000000 0.000000
vt -5.000000 -8.660254 0.000000
vt 5.000000 -8.660254 0.000000
vt -10.000000 0.000000 0.000000
vt -5.000000 -8.660254 0.000000
vt 5.000000 -8.660254 0.000000
vt 10.000000 0.000000 0.000000
vt 5.000000 8.660254 0.000000
vt -5.000000 8.660254 0.000000
vn -0.050000 0.000000 -0.086603
vn -0.050000 0.000000 -0.086603
vn -0.050000 0.000000 -0.086603
vn -0.050000 0.000000 -0.086603
vn -0.100000 0.000000 0.000000
vn -0.100000 0.000000 0.000000
vn -0.100000 0.000000 0.000000
vn -0.100000 0.000000 0.000000
vn -0.050000 0.000000 0.086603
vn -0.050000 0.000000 0.086603
vn -0.050000 0.000000 0.086603
vn -0.050000 0.000000 0.086603
vn 0.050000 0.000000 0.086603
vn 0.050000 0.000000 0.086603
vn 0.050000 0.000000 0.086603
vn 0.050000 0.000000 0.086603
vn 0.100000 0.000000 0.000000
vn 0.100000 0.000000 0.000000
vn 0.100000 0.000000 0.000000
vn 0.100000 0.000000 0.000000
vn 0.050000 0.000000 -0.086603
vn 0.050000 0.000000 -0.086603
vn 0.050000 0.000000 -0.086603
vn 0.050000 0.000000 -0.086603
vn 0.000000 0.100000 0.000000
vn 0.000000 0.100000 0.000000
vn 0.000000 0.100000 0.000000
vn 0.000000 0.100000 0.000000
vn 0.000000 0.100000 0.000000
vn 0.000000 0.100000 0.000000
vn 0.000000 -0.100000 0.000000
vn 0.000000 -0.100000 0.000000
vn 0.000000 -0.100000 0.000000
vn 0.000000 -0.100000 0.000000
vn 0.000000 -0.100000 0.000000
vn 0.000000 -0.100000 0.000000
usemtl 191,191,191
f 3/1/1 7/2/2 1/4/4
f 1/4/4 7/2/2 5/3/3
f 4/5/5 3/6/6 2/8/8
f 2/8/8 3/6/6 1/7/7
f 8/9/9 4/10/10 6/12/12
f 6/12/12 4/10/10 2/11/11
f 12/13/13 8/14/14 10/16/16
f 10/16/16 8/14/14 6/15/15
f 11/17/17 12/18/18 9/20/20
f 9/20/20 12/18/18 10/19/19
f 7/21/21 11/22/22 5/24/24
f 5/24/24 11/22/22 9/23/23
f 12/26/26 11/27/27 8/25/25
f 8/25/25 11/27/27 7/28/28
f 8/25/25 7/28/28 4/30/30
f 4/30/30 7/28/28 3/29/29
f 2/32/32 1/33/33 6/31/31
f 6/31/31 1/33/33 5/34/34
f 6/31/31 5/34/34 10/36/36
f 10/36/36 5/34/34 9/35/35

# 12 vertices
# 36 texture params
# 36 normals
# 20 facets

# 1 groups
